<?xml version="1.0" encoding="UTF-8" standalone="no"?>
<!-- Uploaded to: SVG Repo, www.svgrepo.com, Generator: SVG Repo Mixer Tools -->

<svg
   fill="#000000"
   height="800px"
   width="800px"
   version="1.1"
   id="Layer_1"
   viewBox="0 0 512 512"
   xml:space="preserve"
   sodipodi:docname="pyramid.svg"
   inkscape:version="1.2.2 (732a01da63, 2022-12-09)"
   xmlns:inkscape="http://www.inkscape.org/namespaces/inkscape"
   xmlns:sodipodi="http://sodipodi.sourceforge.net/DTD/sodipodi-0.dtd"
   xmlns="http://www.w3.org/2000/svg"
   xmlns:svg="http://www.w3.org/2000/svg"><defs
   id="defs11" /><sodipodi:namedview
   id="namedview9"
   pagecolor="#ffffff"
   bordercolor="#000000"
   borderopacity="0.25"
   inkscape:showpageshadow="2"
   inkscape:pageopacity="0.0"
   inkscape:pagecheckerboard="0"
   inkscape:deskcolor="#d1d1d1"
   showgrid="false"
   inkscape:zoom="0.90774833"
   inkscape:cx="-95.841542"
   inkscape:cy="551.36428"
   inkscape:window-width="2187"
   inkscape:window-height="1230"
   inkscape:window-x="1016"
   inkscape:window-y="1246"
   inkscape:window-maximized="0"
   inkscape:current-layer="g4"><inkscape:grid
     type="xygrid"
     id="grid390" /></sodipodi:namedview>
<g
   id="g6">
	<g
   id="g4">
		<path
   d="M 492.94385,397.68847 265.34032,14.145416 c -0.0621,-0.124147 -0.20658,-0.165853 -0.29,-0.29 -1.71672,-3.289901 -5.06869,-5.6069922 -9.0414,-5.6069922 -3.97271,0 -7.30432,2.3170912 -9.04238,5.6069922 -0.0621,0.124147 -0.22793,0.165853 -0.29,0.29 L 19.07398,397.68847 c -0.7698,1.73523 -0.770826,3.60352 -0.931104,5.25589 0.349418,2.74641 1.695751,6.18626 4.137593,7.20151 1.449352,0.57808 155.425121,64.71852 221.830441,91.10841 3.24321,1.25146 7.32104,2.4742 11.15106,2.49694 3.83003,0.0228 8.72863,-1.40491 11.41843,-2.43241 2.6898,-1.02751 216.93107,-88.83451 216.93107,-88.83451 3.31089,-1.30437 6.68848,-2.30404 8.57106,-5.30491 1.88257,-3.00087 2.31316,-6.28443 0.76132,-9.49092 z M 245.66299,64.176738 V 271.84395 L 51.538473,377.74151 Z M 266.41786,295.75507 451.73254,401.94568 266.42025,471.13112 Z M 245.88018,472.06909 53.99162,399.52801 245.676,295.1374 Z M 266.35484,271.98943 V 64.238812 l 197.5182,320.600428 z"
   id="path2"
   sodipodi:nodetypes="cccscccccczzssccccccccccccccccc"
   style="fill:#000000;fill-opacity:1;stroke:#000000;stroke-width:12.8;stroke-linecap:round;stroke-linejoin:bevel;stroke-dasharray:none;stroke-opacity:1" />
	</g>
</g>
</svg>
