<?xml version="1.0" encoding="UTF-8" standalone="no"?>
<!-- Uploaded to: SVG Repo, www.svgrepo.com, Generator: SVG Repo Mixer Tools -->

<svg
   fill="#000000"
   height="800px"
   width="800px"
   version="1.1"
   id="Layer_1"
   viewBox="0 0 512 512"
   xml:space="preserve"
   sodipodi:docname="sphere.svg"
   inkscape:version="1.2.2 (732a01da63, 2022-12-09)"
   xmlns:inkscape="http://www.inkscape.org/namespaces/inkscape"
   xmlns:sodipodi="http://sodipodi.sourceforge.net/DTD/sodipodi-0.dtd"
   xmlns="http://www.w3.org/2000/svg"
   xmlns:svg="http://www.w3.org/2000/svg"><defs
   id="defs489" /><sodipodi:namedview
   id="namedview487"
   pagecolor="#ffffff"
   bordercolor="#000000"
   borderopacity="0.25"
   inkscape:showpageshadow="2"
   inkscape:pageopacity="0.0"
   inkscape:pagecheckerboard="0"
   inkscape:deskcolor="#d1d1d1"
   showgrid="false"
   inkscape:zoom="0.90774833"
   inkscape:cx="353.62224"
   inkscape:cy="511.70571"
   inkscape:window-width="1491"
   inkscape:window-height="1230"
   inkscape:window-x="1559"
   inkscape:window-y="1348"
   inkscape:window-maximized="0"
   inkscape:current-layer="Layer_1" />
<g
   id="g484"
   style="stroke:#000000;stroke-width:16.9154342;stroke-dasharray:none;stroke-opacity:1"
   transform="matrix(0.94588172,0,0,0.94588172,13.85428,13.85428)">
	<g
   id="g482"
   style="stroke:#000000;stroke-width:16.9154342;stroke-dasharray:none;stroke-opacity:1">
		<path
   d="M 256,0 C 114.837,0 0,114.837 0,256 0,397.163 114.837,512 256,512 397.163,512 512,397.163 512,256 512,114.837 397.163,0 256,0 Z m 0,21.333 c 129.387,0 234.667,105.28 234.667,234.667 0,40.363 -96.384,85.333 -234.667,85.333 -28.629,0 -55.339,-2.005 -79.893,-5.44 -3.435,-24.555 -5.44,-51.264 -5.44,-79.893 0,-138.283 44.97,-234.667 85.333,-234.667 z m -47.488,4.843 C 173.184,67.435 149.333,153.707 149.333,256 c 0,26.688 1.621,52.309 4.651,76.309 C 72.683,317.205 21.333,285.419 21.333,256 21.333,142.869 101.824,48.192 208.512,26.176 Z M 26.176,303.488 c 27.072,23.168 73.429,41.429 131.136,51.2 9.792,57.707 28.032,104.064 51.2,131.136 C 117.163,466.965 45.035,394.837 26.176,303.488 Z M 256,490.667 c -29.419,0 -61.205,-51.349 -76.309,-132.651 24,3.029 49.621,4.651 76.309,4.651 102.293,0 188.565,-23.851 229.824,-59.179 C 463.808,410.176 369.131,490.667 256,490.667 Z"
   id="path480"
   style="stroke:#000000;stroke-width:16.9154342;stroke-dasharray:none;stroke-opacity:1" />
	</g>
</g>
</svg>
