<?xml version="1.0" encoding="UTF-8" standalone="no"?>
<svg
   viewBox="0 0 512 512"
   version="1.1"
   id="svg128500"
   sodipodi:docname="image_plane.svg"
   inkscape:version="1.2.2 (732a01da63, 2022-12-09)"
   xmlns:inkscape="http://www.inkscape.org/namespaces/inkscape"
   xmlns:sodipodi="http://sodipodi.sourceforge.net/DTD/sodipodi-0.dtd"
   xmlns="http://www.w3.org/2000/svg"
   xmlns:svg="http://www.w3.org/2000/svg">
  <defs
     id="defs128504" />
  <sodipodi:namedview
     id="namedview128502"
     pagecolor="#ffffff"
     bordercolor="#000000"
     borderopacity="0.25"
     inkscape:showpageshadow="2"
     inkscape:pageopacity="0.0"
     inkscape:pagecheckerboard="0"
     inkscape:deskcolor="#d1d1d1"
     showgrid="false"
     inkscape:zoom="1.4183568"
     inkscape:cx="247.11695"
     inkscape:cy="218.56278"
     inkscape:window-width="3440"
     inkscape:window-height="1377"
     inkscape:window-x="-8"
     inkscape:window-y="1078"
     inkscape:window-maximized="1"
     inkscape:current-layer="svg128500" />
  <!--! Font Awesome Pro 6.2.0 by @fontawesome - https://fontawesome.com License - https://fontawesome.com/license (Commercial License) Copyright 2022 Fonticons, Inc. -->
  <path
     d="m 85.960371,214.28261 c 0,-11.52989 0.245573,-29.24587 0.245014,-42.53223 16.359345,-7.64755 28.540825,-13.54288 39.727005,-18.84376 L 365.76454,39.255463 c 11.72694,-5.557137 23.40179,-11.240912 40.19134,-19.357317 -0.0415,13.706664 -0.21932,31.893784 -0.21932,42.849589 V 274.9184 c 0,10.51702 0.14115,18.25741 0.13111,41.90211 -24.41377,11.68277 -30.38215,14.86732 -40.10313,19.47388 L 125.93239,449.94555 c -12.27615,5.81739 -30.286806,14.04299 -39.929748,18.84388 0.08028,-7.85137 -0.04227,-31.96339 -0.04227,-42.33616 z M 288.19383,189.06169 c -2.81054,-3.04418 -7.4323,-3.43986 -12.36635,-1.10171 -4.93405,2.33814 -9.61826,7.14371 -12.36635,12.82198 L 209.12417,311.1341 192.57326,297.03082 c -2.87299,-2.41785 -7.18249,-2.56369 -11.67933,-0.43274 -4.49685,2.13097 -8.8688,6.39075 -11.67932,11.50189 l -39.97203,71.98451 c -3.62246,6.49046 -4.30948,13.38005 -1.81124,17.69936 2.49826,4.31931 7.74458,5.34727 13.49056,2.62437 l 59.95804,-28.41279 19.986,-9.47092 129.90908,-61.56105 c 5.55862,-2.63409 10.68004,-8.30988 13.24074,-14.76132 2.5607,-6.45143 2.24842,-12.60225 -0.87438,-15.96256 z m -132.28242,55.72387 c 16.55092,-7.84312 29.97902,-28.46162 29.97902,-46.032 0,-17.57038 -13.4281,-25.46232 -29.97902,-17.61921 -16.55091,7.84312 -29.97902,28.46162 -29.97902,46.032 0,17.57038 13.42811,25.46232 29.97902,17.61921 z"
     id="path128498"
     style="fill:#26a9e1;fill-opacity:1;stroke:#2a2a2a;stroke-width:6.43511;stroke-dasharray:none;stroke-opacity:1"
     sodipodi:nodetypes="sccscsscsscsssscccsccsscccscssssss" />
</svg>
