<?xml version="1.0" encoding="UTF-8" standalone="no"?>
<svg
   viewBox="0 0 576 512"
   version="1.1"
   id="svg16924"
   sodipodi:docname="mirror_cam.svg"
   inkscape:version="1.2.2 (732a01da63, 2022-12-09)"
   xmlns:inkscape="http://www.inkscape.org/namespaces/inkscape"
   xmlns:sodipodi="http://sodipodi.sourceforge.net/DTD/sodipodi-0.dtd"
   xmlns="http://www.w3.org/2000/svg"
   xmlns:svg="http://www.w3.org/2000/svg">
  <defs
     id="defs16928" />
  <sodipodi:namedview
     id="namedview16926"
     pagecolor="#ffffff"
     bordercolor="#000000"
     borderopacity="0.25"
     inkscape:showpageshadow="2"
     inkscape:pageopacity="0.0"
     inkscape:pagecheckerboard="0"
     inkscape:deskcolor="#d1d1d1"
     showgrid="true"
     inkscape:zoom="1.6347656"
     inkscape:cx="367.33095"
     inkscape:cy="318.08842"
     inkscape:window-width="3440"
     inkscape:window-height="1377"
     inkscape:window-x="-8"
     inkscape:window-y="1078"
     inkscape:window-maximized="1"
     inkscape:current-layer="svg16924">
    <inkscape:grid
       type="xygrid"
       id="grid26238" />
  </sodipodi:namedview>
  <!--! Font Awesome Pro 6.2.0 by @fontawesome - https://fontawesome.com License - https://fontawesome.com/license (Commercial License) Copyright 2022 Fonticons, Inc. -->
  <path
     d="m 65.851304,153.27303 c -14.299617,0 -25.92565,11.62604 -25.92565,25.92565 0,14.29962 11.626033,25.92566 25.92565,25.92566 14.299616,0 25.925656,-11.62604 25.925656,-25.92566 0,-14.29961 -11.62604,-25.92565 -25.925656,-25.92565 z m 90.739776,77.77695 H 65.851304 C 37.211561,231.04998 14,207.83843 14,179.19868 c 0,-28.63974 23.211561,-51.8513 51.851304,-51.8513 19.525266,0 36.538966,10.77535 45.369906,26.73582 8.83091,-15.96047 25.84461,-26.73582 45.36987,-26.73582 28.63975,0 51.85131,23.21156 51.85131,51.8513 0,28.63975 -23.21156,51.8513 -51.85131,51.8513 z m 0,-77.77695 c -14.29962,0 -25.92565,11.62604 -25.92565,25.92565 0,14.29962 11.62603,25.92566 25.92565,25.92566 14.29963,0 25.92566,-11.62604 25.92566,-25.92566 0,-14.29961 -11.62603,-25.92565 -25.92566,-25.92565 z m 83.56973,79.15427 c 4.37494,2.18745 7.17006,6.68395 7.17006,11.58552 v 77.77695 c 0,4.90156 -2.75461,9.39805 -7.17006,11.58553 -4.41546,2.18747 -9.6411,1.74188 -13.57046,-1.21527 l -25.92565,-19.44424 -5.18513,-3.88884 v -6.48142 -38.88849 -6.48141 l 5.18513,-3.88883 25.92565,-19.44425 c 3.92936,-2.95715 9.1955,-3.40274 13.57046,-1.21525 z M 65.851304,244.01282 h 90.739776 c 14.29963,0 25.92566,11.62602 25.92566,25.92564 v 38.88849 c 0,14.29961 -11.62603,25.92565 -25.92566,25.92565 H 65.851304 c -14.299617,0 -25.92565,-11.62604 -25.92565,-25.92565 v -38.88849 c 0.1596,-15.11658 10.402798,-25.77271 25.92565,-25.92564 z"
     id="path16922"
     style="fill:#25a8df;fill-opacity:1;stroke:#2a2a2a;stroke-width:10;stroke-dasharray:none;stroke-opacity:1"
     sodipodi:nodetypes="ssssssssscssssssssssssccccccccscsssssscc" />
  <path
     d="m 509.4899,153.8563 c 14.29961,0 25.92565,11.62604 25.92565,25.92565 0,14.29962 -11.62604,25.92566 -25.92565,25.92566 -14.29962,0 -25.92566,-11.62604 -25.92566,-25.92566 0,-14.29961 11.62604,-25.92565 25.92566,-25.92565 z m -90.73978,77.77695 h 90.73978 c 28.63974,0 51.8513,-23.21155 51.8513,-51.8513 0,-28.63974 -23.21156,-51.8513 -51.8513,-51.8513 -19.52527,0 -36.53897,10.77535 -45.36991,26.73582 -8.83091,-15.96047 -25.84461,-26.73582 -45.36987,-26.73582 -28.63975,0 -51.85131,23.21156 -51.85131,51.8513 0,28.63975 23.21156,51.8513 51.85131,51.8513 z m 0,-77.77695 c 14.29962,0 25.92565,11.62604 25.92565,25.92565 0,14.29962 -11.62603,25.92566 -25.92565,25.92566 -14.29963,0 -25.92566,-11.62604 -25.92566,-25.92566 0,-14.29961 11.62603,-25.92565 25.92566,-25.92565 z m -83.56973,79.15427 c -4.37494,2.18745 -7.17006,6.68395 -7.17006,11.58552 v 77.77695 c 0,4.90156 2.75461,9.39805 7.17006,11.58553 4.41546,2.18747 9.6411,1.74188 13.57046,-1.21527 l 25.92565,-19.44424 5.18513,-3.88884 v -6.48142 -38.88849 -6.48141 l -5.18513,-3.88883 -25.92565,-19.44425 c -3.92936,-2.95715 -9.1955,-3.40274 -13.57046,-1.21525 z m 174.30951,11.58552 h -90.73978 c -14.29963,0 -25.92566,11.62602 -25.92566,25.92564 v 38.88849 c 0,14.29961 11.62603,25.92565 25.92566,25.92565 h 90.73978 c 14.29961,0 25.92565,-11.62604 25.92565,-25.92565 v -38.88849 c -0.1596,-15.11658 -10.4028,-25.77271 -25.92565,-25.92564 z"
     id="path16922-5"
     style="fill:#25a8df;fill-opacity:1;stroke:#2a2a2a;stroke-width:10;stroke-dasharray:none;stroke-opacity:1"
     sodipodi:nodetypes="ssssssssscssssssssssssccccccccscsssssscc" />
  <rect
     style="fill:#bdbdbd;fill-opacity:1;stroke:#2a2a2a;stroke-width:9.19171;stroke-dasharray:none;stroke-opacity:1"
     id="rect24778"
     width="35.722908"
     height="498.95471"
     x="269.71033"
     y="6.5990024"
     rx="6.0983782" />
</svg>
