<?xml version="1.0" encoding="UTF-8" standalone="no"?>
<svg
   viewBox="0 0 512 512"
   version="1.1"
   id="svg8228"
   sodipodi:docname="motion_trail.svg"
   xml:space="preserve"
   inkscape:version="1.2.2 (732a01da63, 2022-12-09)"
   xmlns:inkscape="http://www.inkscape.org/namespaces/inkscape"
   xmlns:sodipodi="http://sodipodi.sourceforge.net/DTD/sodipodi-0.dtd"
   xmlns="http://www.w3.org/2000/svg"
   xmlns:svg="http://www.w3.org/2000/svg"><defs
     id="defs8232" /><sodipodi:namedview
     id="namedview8230"
     pagecolor="#ffffff"
     bordercolor="#000000"
     borderopacity="0.25"
     inkscape:showpageshadow="2"
     inkscape:pageopacity="0.0"
     inkscape:pagecheckerboard="0"
     inkscape:deskcolor="#d1d1d1"
     showgrid="false"
     inkscape:zoom="1.4183568"
     inkscape:cx="379.66469"
     inkscape:cy="323.61392"
     inkscape:window-width="2428"
     inkscape:window-height="1149"
     inkscape:window-x="445"
     inkscape:window-y="1223"
     inkscape:window-maximized="0"
     inkscape:current-layer="svg8228" /><!--! Font Awesome Pro 6.2.0 by @fontawesome - https://fontawesome.com License - https://fontawesome.com/license (Commercial License) Copyright 2022 Fonticons, Inc. --><path
     style="fill:#26a9e1;fill-opacity:1;stroke:#2a2a2a;stroke-width:10;stroke-linecap:square;stroke-linejoin:miter"
     d="m 63.213037,30.003979 c 28.470528,42.191911 27.078105,45.242654 1.71834,92.822811 -57.9997943,108.81957 65.625973,169.09682 180.422963,167.65019 59.11241,-0.74491 167.59299,0.30626 196.80223,33.17878 44.77372,50.38902 -41.27451,120.43181 -148.07985,143.49453 7.46707,16.67172 9.89386,22.18294 17.58326,37.47347 C 498.19803,455.15176 518.37679,352.20733 480.40701,300.98507 441.06752,247.91505 316.5136,243.26214 241.82914,244.6493 142.29286,246.49805 58.271702,205.32727 110.94773,129.37306 142.86173,83.355867 131.00682,43.799162 100.13786,6.8512489 88.397756,13.541173 75.647942,22.046476 63.213037,30.003979 Z"
     id="path81642"
     sodipodi:nodetypes="csssccssscc" /><path
     id="path81663"
     style="fill:#bdbdbd;fill-opacity:1;stroke:#2a2a2a;stroke-width:10;stroke-linecap:square;stroke-linejoin:miter"
     d="M 100.13867 6.8515625 C 88.398608 13.541466 75.647757 22.046427 63.212891 30.003906 C 86.584719 64.6398 89.797576 72.94012 76.181641 101.10938 L 122.16992 109.64453 C 138.97454 71.87826 126.5056 38.410856 100.13867 6.8515625 z M 100.93945 196.41602 L 62.439453 218.36719 C 92.068803 266.16232 170.57541 291.41889 245.35352 290.47656 C 269.14295 290.17678 300.92014 290.208 332.31641 292.44727 L 336.61328 247.60742 C 302.75669 244.4753 268.99255 244.14393 241.83008 244.64844 C 177.41658 245.84483 119.51609 229.01948 100.93945 196.41602 z M 429.20508 266.61133 L 413.43164 306.63281 C 425.77208 311.05823 435.87252 316.58444 442.15625 323.65625 C 452.4606 335.25292 455.76496 347.8934 453.55273 360.75977 L 493.80273 371.03125 C 500.06547 344.27621 493.99324 319.31359 480.40625 300.98438 C 469.22999 285.9073 451.0393 274.84447 429.20508 266.61133 z M 399.19141 425.18555 C 370.84111 443.4015 333.91285 458.54836 294.07617 467.15039 C 301.54321 483.82205 303.97076 489.33255 311.66016 504.62305 C 356.37414 492.76439 391.43853 477.81448 418.52539 461.25977 L 399.19141 425.18555 z " /><circle
     style="fill:#26a9e1;fill-opacity:1;stroke:#2a2a2a;stroke-width:10;stroke-linecap:square;stroke-linejoin:round"
     id="path80071"
     cx="256"
     cy="256"
     r="105.40366" /></svg>
