<?xml version="1.0" encoding="UTF-8" standalone="no"?>
<svg
   viewBox="0 0 512 512"
   version="1.1"
   id="svg8228"
   sodipodi:docname="pan_zoom.svg"
   xml:space="preserve"
   inkscape:version="1.2.2 (732a01da63, 2022-12-09)"
   xmlns:inkscape="http://www.inkscape.org/namespaces/inkscape"
   xmlns:sodipodi="http://sodipodi.sourceforge.net/DTD/sodipodi-0.dtd"
   xmlns="http://www.w3.org/2000/svg"
   xmlns:svg="http://www.w3.org/2000/svg"><defs
     id="defs8232" /><sodipodi:namedview
     id="namedview8230"
     pagecolor="#ffffff"
     bordercolor="#000000"
     borderopacity="0.25"
     inkscape:showpageshadow="2"
     inkscape:pageopacity="0.0"
     inkscape:pagecheckerboard="0"
     inkscape:deskcolor="#d1d1d1"
     showgrid="true"
     inkscape:zoom="1.3506842"
     inkscape:cx="-98.098434"
     inkscape:cy="226.55186"
     inkscape:window-width="2428"
     inkscape:window-height="1149"
     inkscape:window-x="503"
     inkscape:window-y="1226"
     inkscape:window-maximized="0"
     inkscape:current-layer="svg8228"><inkscape:grid
       type="xygrid"
       id="grid100319" /></sodipodi:namedview><!--! Font Awesome Pro 6.2.0 by @fontawesome - https://fontawesome.com License - https://fontawesome.com/license (Commercial License) Copyright 2022 Fonticons, Inc. --><path
     id="rect92993"
     style="fill:#bdbdbd;fill-opacity:1;stroke:#2a2a2a;stroke-width:6;stroke-linecap:square;stroke-linejoin:miter;stroke-dasharray:none;stroke-opacity:1;paint-order:markers fill stroke"
     d="m 6.260652,115.8897 v 91.28041 h 27.252749 v -62.67635 l 63.650771,0 V 115.8897 Z m 406.914808,0 v 28.60406 l 65.31114,0 v 62.67635 h 27.25275 V 115.8897 Z M 6.260652,308.00027 v 88.11003 l 90.90352,0 v -28.60198 l -63.650771,0 v -59.50805 z m 472.225948,0 v 59.50805 l -65.31114,0 v 28.60198 l 92.56389,0 v -88.11003 z"
     sodipodi:nodetypes="cccccccccccccccccccccccccccc" /><path
     d="m 270.59233,139.26136 v 14.59232 4.74251 c 42.72818,6.33855 76.47293,40.12892 82.81148,82.81149 h 4.74251 14.59233 v 29.18465 h -14.59233 -4.74251 c -6.33855,42.72818 -40.12891,76.47293 -82.81148,82.81148 v 4.74251 14.59233 h -29.18466 v -14.59233 -4.74251 c -42.72817,-6.33855 -76.47293,-40.0833 -82.81147,-82.81148 h -4.7425 -14.59235 v -29.18466 h 14.59235 4.7425 c 6.33854,-42.72818 40.0833,-76.47293 82.81148,-82.81149 v -4.74251 -14.59232 z m -82.35546,131.33097 c 5.70014,26.58541 26.63101,47.47068 53.17081,53.17081 v -9.39382 -14.59233 h 29.18465 v 14.59233 9.39382 c 26.58541,-5.70013 47.47068,-26.63101 53.17081,-53.17081 h -9.39382 -14.59233 v -29.18466 h 14.59233 9.39382 c -5.70013,-26.5854 -26.58541,-47.47068 -53.17081,-53.17081 v 9.39382 14.59233 h -29.18466 v -14.59233 -9.39382 c -26.5854,5.70013 -47.47067,26.58541 -53.1708,53.17081 h 9.39381 14.59234 v 29.18466 h -14.59234 z m 67.76313,0 c -8.07138,0 -14.59233,-6.52096 -14.59233,-14.59233 0,-8.07138 6.52095,-14.59233 14.59233,-14.59233 8.07137,0 14.59233,6.52095 14.59233,14.59233 0,8.07137 -6.52096,14.59233 -14.59233,14.59233 z"
     id="path93025"
     style="fill:#26a9e1;fill-opacity:1;stroke:#2a2a2a;stroke-width:6;stroke-dasharray:none;stroke-opacity:1" /></svg>
